<?xml version="1.0" encoding="UTF-8" standalone="no"?>
<!DOCTYPE svg PUBLIC "-//W3C//DTD SVG 20010904//EN"
              "http://www.w3.org/TR/2001/REC-SVG-20010904/DTD/svg10.dtd">

<svg xmlns="http://www.w3.org/2000/svg"
     width="1.33333in" height="1.33333in"
     viewBox="0 0 400 400">
  <path id="選択範囲 #2"
        fill="none" stroke="black" stroke-width="1"
        d="M 184.00,0.21
           C 155.11,4.55 140.31,6.76 113.00,19.31
             65.16,41.29 28.20,84.80 10.69,134.00
             -14.50,204.78 5.13,287.36 57.04,341.00
             78.75,363.43 107.52,380.17 137.00,390.00
             150.93,394.64 174.44,399.83 189.00,400.00
             231.89,400.50 261.98,394.35 300.00,373.69
             316.84,364.54 328.23,354.53 341.83,341.28
             402.51,282.16 416.57,186.55 379.74,111.00
             365.85,82.50 345.33,58.29 320.00,39.37
             304.52,27.82 286.33,17.84 268.00,11.67
             249.44,5.42 227.65,0.03 208.00,0.21
             208.00,0.21 184.00,0.21 184.00,0.21 Z
           M 210.00,70.00
           C 210.00,70.00 210.00,190.00 210.00,190.00
             210.00,190.00 330.00,190.00 330.00,190.00
             330.00,190.00 330.00,210.00 330.00,210.00
             330.00,210.00 210.00,210.00 210.00,210.00
             210.00,210.00 210.00,330.00 210.00,330.00
             210.00,330.00 190.00,330.00 190.00,330.00
             190.00,330.00 190.00,210.00 190.00,210.00
             190.00,210.00 70.00,210.00 70.00,210.00
             70.00,210.00 70.00,190.00 70.00,190.00
             70.00,190.00 190.00,190.00 190.00,190.00
             190.00,190.00 190.00,70.00 190.00,70.00
             190.00,70.00 210.00,70.00 210.00,70.00 Z" />
</svg>
