<?xml version="1.0" encoding="UTF-8" standalone="no"?>
<svg
   xmlns:dc="http://purl.org/dc/elements/1.1/"
   xmlns:cc="http://creativecommons.org/ns#"
   xmlns:rdf="http://www.w3.org/1999/02/22-rdf-syntax-ns#"
   xmlns:svg="http://www.w3.org/2000/svg"
   xmlns="http://www.w3.org/2000/svg"
   xmlns:sodipodi="http://sodipodi.sourceforge.net/DTD/sodipodi-0.dtd"
   xmlns:inkscape="http://www.inkscape.org/namespaces/inkscape"
   id="svg3"
   version="1.1"
   viewBox="0 0 225 225"
   height="2.5in"
   width="2.5in"
   sodipodi:docname="admin.svg"
   inkscape:version="0.92.3 (2405546, 2018-03-11)">
  <sodipodi:namedview
     pagecolor="#ffffff"
     bordercolor="#666666"
     borderopacity="1"
     objecttolerance="10"
     gridtolerance="10"
     guidetolerance="10"
     inkscape:pageopacity="0"
     inkscape:pageshadow="2"
     inkscape:window-width="1853"
     inkscape:window-height="1025"
     id="namedview870"
     showgrid="false"
     inkscape:zoom="3.4416667"
     inkscape:cx="48.087168"
     inkscape:cy="120"
     inkscape:window-x="67"
     inkscape:window-y="27"
     inkscape:window-maximized="1"
     inkscape:current-layer="svg3" />
  <metadata
     id="metadata9">
    <rdf:RDF>
      <cc:Work
         rdf:about="">
        <dc:format>image/svg+xml</dc:format>
        <dc:type
           rdf:resource="http://purl.org/dc/dcmitype/StillImage" />
        <dc:title />
      </cc:Work>
    </rdf:RDF>
  </metadata>
  <defs
     id="defs7" />
  <path
     style="fill:#89c3eb;fill-opacity:1;stroke:none;stroke-width:1.47106636"
     d="M 146.03125 1.1386719 C 127.11333 9.4649074 109.3717 11.788864 109.22461 36.076172 C 109.15106 46.653139 111.21044 73.999477 106.01758 81.972656 C 101.53082 88.886669 90.689451 94.447897 83.996094 100.99414 C 70.800629 113.85127 58.915218 134.76923 52.177734 151.92188 C 48.367673 161.64562 45.130923 172.79786 48.117188 183.18359 C 54.016165 203.83735 80.980936 224.94554 100.03125 233.43359 C 106.90113 236.52282 116.36047 240.24602 123.95117 239.80469 C 147.45881 238.40717 180.42496 213.87024 192.16406 194.2168 C 205.12416 172.51857 196.6352 135.40206 187.5293 113.30664 C 174.09846 80.707804 155.19523 78.942378 146.20703 52.625 C 144.20637 46.726023 142.23641 34.913892 142.67773 28.720703 C 143.29558 20.306203 148.06131 8.5969784 146.03125 1.1386719 z M 113.38672 114.7207 L 133.04102 114.7207 C 133.04102 125.2914 141.55313 133.86133 152.05469 133.86133 C 155.53809 133.86133 158.80176 132.91738 161.60938 131.27148 L 171.4375 148.29297 C 162.30001 153.58438 159.14394 165.22911 164.39062 174.31641 C 166.12324 177.31739 168.55665 179.66347 171.36719 181.27148 L 161.53906 198.29297 C 152.39472 193.06035 140.76133 196.15567 135.52344 205.22852 C 133.79551 208.22149 132.97833 211.49082 132.98633 214.7207 L 113.33398 214.7207 C 113.27969 204.19668 104.78867 195.68359 94.320312 195.68359 C 90.855082 195.68359 87.606454 196.61562 84.808594 198.24609 L 74.980469 181.22656 C 84.083979 175.92343 87.222465 164.29961 81.984375 155.22656 C 80.242575 152.20996 77.792001 149.85664 74.962891 148.24805 L 84.791016 131.22656 C 93.941986 136.49453 105.60507 133.40391 110.85156 124.31641 C 112.59804 121.292 113.41272 117.98339 113.38672 114.7207 z M 123.19922 144.47461 C 112.0166 144.47461 102.95312 153.53828 102.95312 164.7207 C 102.95312 175.90332 112.0168 184.96875 123.19922 184.96875 C 134.38164 184.96875 143.44707 175.90332 143.44727 164.7207 C 143.44727 153.53828 134.38184 144.47461 123.19922 144.47461 z "
     transform="scale(0.9375)"
     id="選択範囲" />
</svg>
