<?xml version="1.0" encoding="UTF-8" standalone="no"?>
<!DOCTYPE svg PUBLIC "-//W3C//DTD SVG 20010904//EN"
              "http://www.w3.org/TR/2001/REC-SVG-20010904/DTD/svg10.dtd">

<svg xmlns="http://www.w3.org/2000/svg"
     width="2.55556in" height="2.55556in"
     viewBox="0 0 230 230">
  <path id="選択範囲 #3"
        fill="none" stroke="black" stroke-width="1"
        d="M 118.00,0.21
           C 130.73,0.02 145.11,3.22 157.00,7.68
             169.87,12.52 181.92,19.59 191.99,29.00
             240.21,74.10 243.60,147.79 197.58,195.83
             188.08,205.74 178.16,212.18 166.00,218.25
             146.83,227.81 130.18,230.24 109.00,230.00
             99.71,229.89 86.86,226.93 78.00,224.00
             11.20,201.93 -18.25,126.50 11.48,64.00
             23.93,37.84 47.70,16.56 75.00,6.86
             83.74,3.76 92.88,1.92 102.00,0.21
             102.00,0.21 118.00,0.21 118.00,0.21 Z
           M 34.70,86.00
           C 18.79,130.71 42.34,181.02 88.00,195.66
             95.07,197.92 103.57,199.91 111.00,200.00
             124.78,200.16 138.44,198.15 151.00,192.22
             162.20,186.93 171.43,180.66 179.39,171.00
             201.98,143.55 206.81,107.90 190.75,76.00
             185.36,65.29 178.48,56.14 169.00,48.67
             161.27,42.58 152.33,37.65 143.00,34.52
             131.16,30.53 117.43,29.11 105.00,30.29
             72.00,35.75 46.19,53.71 34.70,86.00 Z
           M 130.29,53.00
           C 129.61,58.22 130.22,63.98 131.77,69.00
             136.32,83.77 148.57,90.06 155.69,103.00
             163.99,118.08 171.00,146.97 162.60,163.00
             158.12,171.54 148.13,179.89 140.00,184.94
             135.02,188.02 126.81,192.11 121.00,192.82
             104.99,194.76 84.46,181.05 75.02,169.00
             70.55,163.31 66.62,156.50 67.18,149.00
             68.20,135.52 79.83,114.60 89.04,105.00
             93.47,100.38 103.55,93.21 105.86,89.00
             109.07,83.18 107.92,68.13 108.00,61.00
             108.22,43.24 118.69,43.82 131.00,37.00
             133.19,42.51 131.01,47.44 130.29,53.00 Z" />
</svg>
