<?xml version="1.0" encoding="UTF-8" standalone="no"?>
<!DOCTYPE svg PUBLIC "-//W3C//DTD SVG 20010904//EN"
              "http://www.w3.org/TR/2001/REC-SVG-20010904/DTD/svg10.dtd">

<svg xmlns="http://www.w3.org/2000/svg"
     width="2.55556in" height="2.55556in"
     viewBox="0 0 230 230">
  <path id="名前なし"
        fill="none" stroke="black" stroke-width="1"
        d="M 20.00,10.00
           C 30.00,10.00 90.00,10.00 100.00,10.00
             110.00,10.00 110.00,20.00 110.00,20.00
             110.00,20.00 110.00,90.00 110.00,100.00
             110.00,110.00 100.00,110.00 100.00,110.00
             100.00,110.00 30.00,110.00 20.00,110.00
             10.00,110.00 10.00,100.00 10.00,100.00
             10.00,100.00 10.00,20.00 10.00,20.00
             10.00,20.00 10.00,10.00 20.00,10.00 Z
           M 130.00,10.00
           C 140.00,10.00 200.00,10.00 210.00,10.00
             220.00,10.00 220.00,20.00 220.00,20.00
             220.00,20.00 220.00,90.00 220.00,100.00
             220.00,110.00 210.00,110.00 210.00,110.00
             210.00,110.00 140.00,110.00 130.00,110.00
             120.00,110.00 120.00,100.00 120.00,100.00
             120.00,100.00 120.00,20.00 120.00,20.00
             120.00,20.00 120.00,10.00 130.00,10.00 Z
           M 100.00,120.00
           C 110.00,120.00 110.00,130.00 110.00,130.00
             110.00,130.00 110.00,200.00 110.00,210.00
             110.00,220.00 100.00,220.00 100.00,220.00
             100.00,220.00 30.00,220.00 20.00,220.00
             10.00,220.00 10.00,210.00 10.00,210.00
             10.00,210.00 10.00,140.00 10.00,130.00
             10.00,120.00 20.00,120.00 20.00,120.00
             20.00,120.00 90.00,120.00 100.00,120.00 Z
           M 179.97,133.19
           C 180.23,129.75 182.18,124.95 181.35,121.90
             173.60,125.31 166.34,126.26 166.28,136.20
             166.25,140.53 167.09,151.73 164.97,154.99
             163.13,157.82 158.69,160.10 155.95,162.78
             150.55,168.04 145.68,176.61 142.93,183.63
             141.37,187.61 140.04,192.17 141.26,196.43
             143.68,204.88 154.72,213.52 162.52,217.00
             165.33,218.26 169.20,219.79 172.31,219.61
             181.93,219.03 195.43,208.99 200.23,200.94
             205.54,192.06 202.06,176.87 198.34,167.82
             192.84,154.48 185.10,153.75 181.42,142.98
             180.60,140.56 179.79,135.73 179.97,133.19
             179.97,133.19 179.97,133.19 179.97,133.19 Z" />
</svg>
