<svg aria-hidden="true" style="position: absolute; width: 0; height: 0; overflow: hidden;" version="1.1" xmlns="http://www.w3.org/2000/svg" xmlns:xlink="http://www.w3.org/1999/xlink">
<defs>
<symbol id="team" viewBox="0 0 32 32">
<title>team</title>
<path d="M12.767 30.441c-0.306-0.481-4.249-1.19-4.721-1.515-2.108-1.45-0.454-0.604-3.234-2.273-1.887-1.132-4.547-3.403-4.776-5.707-0.207-2.087 0.892-5.689 2.556-7.073 0.538-0.445 1.442-0.686 2.121-0.834 1.877-0.411 5.030-0.325 6.599 0.875 0.79 0.604 1.16 1.601 1.411 2.524 0.441 1.631 0.705 3.819 0.432 5.485-0.137 0.848-0.053 1.326-0.007 2.079 0.053 0.871 1.12 3.293 1.694 4.076 1.319 1.798 0.5 0.009 2.596 2.826-0.56-0.439-3.455 1.702-4.672-0.462zM7.511 4.313c0.564 0.094 3.726-2.353 4.286-2.486 2.491-0.593 0.754 0.067 3.86-0.877 2.106-0.641 5.583-1.097 7.461 0.271 1.702 1.24 3.668 4.455 3.593 6.612-0.024 0.695-0.447 1.525-0.79 2.128-0.943 1.663-3.112 3.942-5.057 4.303-0.98 0.182-1.973-0.209-2.833-0.639-1.515-0.761-3.331-2.025-4.398-3.339-0.542-0.667-0.957-0.924-1.553-1.393-0.687-0.542-3.214-1.366-4.183-1.465-2.227-0.221-0.342 0.365-3.849 0.036 0.702-0.12 1.030-3.692 3.463-3.151zM31.405 15.132c-0.31 0.478 0.694 4.335 0.594 4.898-0.442 2.508-0.362 0.662-0.722 3.872-0.244 2.176-1.204 5.53-3.212 6.701-1.82 1.061-5.569 1.578-7.53 0.654-0.632-0.299-1.232-1.015-1.651-1.566-1.162-1.521-2.402-4.405-1.964-6.324 0.22-0.966 0.976-1.718 1.715-2.331 1.305-1.081 3.192-2.236 4.828-2.687 0.831-0.23 1.233-0.507 1.903-0.864 0.773-0.412 2.539-2.391 3.013-3.237 1.088-1.943-0.202-0.455 1.495-3.527-0.168 0.689 2.999 2.407 1.533 4.411z"></path>
</symbol>
<symbol id="user" viewBox="0 0 32 32">
<title>user</title>
<path d="M19.024 3.829c-0.059 0.826 0.204 2.401 0.471 3.187 1.198 3.509 3.719 3.744 5.51 8.091 1.214 2.946 2.346 7.895 0.618 10.788-1.565 2.62-5.961 5.892-9.095 6.078-1.012 0.059-2.273-0.437-3.189-0.849-2.54-1.132-6.135-3.946-6.922-6.7-0.398-1.385 0.033-2.872 0.541-4.168 0.898-2.287 2.483-5.076 4.243-6.79 0.892-0.873 2.338-1.614 2.936-2.536 0.692-1.063 0.418-4.709 0.428-6.12 0.020-3.238 2.385-3.548 4.907-4.658 0.271 0.994-0.365 2.556-0.447 3.678z"></path>
</symbol>
<symbol id="add" viewBox="0 0 400 400">
<title>add</title>
<path d="M184 .21c-28.89 4.34-43.69 6.55-71 19.1C65.16 41.29 28.2 84.8 10.69 134c-25.19 70.78-5.56 153.36 46.35 207 21.71 22.43 50.48 39.17 79.96 49 13.93 4.64 37.44 9.83 52 10 42.89.5 72.98-5.65 111-26.31 16.84-9.15 28.23-19.16 41.83-32.41 60.68-59.12 74.74-154.73 37.91-230.28-13.89-28.5-34.41-52.71-59.74-71.63-15.48-11.55-33.67-21.53-52-27.7C249.44 5.42 227.65.03 208 .21h-24zM210 70v120h120v20H210v120h-20V210H70v-20h120V70h20z"/>
</symbol>
<symbol id="mypage" viewBox="0 0 230 230">
<path d="M118 .21c12.73-.19 27.11 3.01 39 7.47 12.87 4.84 24.92 11.91 34.99 21.32 48.22 45.1 51.61 118.79 5.59 166.83-9.5 9.91-19.42 16.35-31.58 22.42-19.17 9.56-35.82 11.99-57 11.75-9.29-.11-22.14-3.07-31-6-66.8-22.07-96.25-97.5-66.52-160C23.93 37.84 47.7 16.56 75 6.86c8.74-3.1 17.88-4.94 27-6.65h16zM34.7 86c-15.91 44.71 7.64 95.02 53.3 109.66 7.07 2.26 15.57 4.25 23 4.34 13.78.16 27.44-1.85 40-7.78 11.2-5.29 20.43-11.56 28.39-21.22 22.59-27.45 27.42-63.1 11.36-95-5.39-10.71-12.27-19.86-21.75-27.33-7.73-6.09-16.67-11.02-26-14.15-11.84-3.99-25.57-5.41-38-4.23C72 35.75 46.19 53.71 34.7 86zm95.59-33c-.68 5.22-.07 10.98 1.48 16 4.55 14.77 16.8 21.06 23.92 34 8.3 15.08 15.31 43.97 6.91 60-4.48 8.54-14.47 16.89-22.6 21.94-4.98 3.08-13.19 7.17-19 7.88-16.01 1.94-36.54-11.77-45.98-23.82-4.47-5.69-8.4-12.5-7.84-20 1.02-13.48 12.65-34.4 21.86-44 4.43-4.62 14.51-11.79 16.82-16 3.21-5.82 2.06-20.87 2.14-28 .22-17.76 10.69-17.18 23-24 2.19 5.51.01 10.44-.71 16z"/>
</symbol>
<symbol id="setting" viewBox="0 0 512 512">
<path d="M277.58 114.56c.81-11.1 7.1-26.54 4.42-36.38-24.96 10.98-48.36 14.05-48.55 46.09-.1 13.95 2.62 50.02-4.23 60.54-5.92 9.12-20.22 16.46-29.05 25.09-17.41 16.96-33.09 44.56-41.98 67.19-5.03 12.82-9.29 27.53-5.36 41.23 7.79 27.25 43.36 55.1 68.49 66.29 9.06 4.08 21.54 8.99 31.55 8.41 31.01-1.85 74.5-34.22 89.99-60.14 17.09-28.63 5.9-77.59-6.12-106.73-17.71-43.01-42.65-45.34-54.51-80.05-2.64-7.78-5.24-23.37-4.65-31.54zM466.9 305.13c8.87 15.36 21.32 27.38 35.71 35.61l-50.31 87.14c-46.82-26.79-106.39-10.94-133.21 35.51-8.84 15.32-13.02 32.07-12.98 48.61H205.48c-.28-53.88-43.75-97.48-97.35-97.48-17.74 0-34.37 4.78-48.7 13.13L9.12 340.5c46.61-27.15 62.67-86.66 35.85-133.11-8.91-15.45-21.45-27.5-35.94-35.74L59.34 84.5c46.86 26.98 106.57 11.15 133.43-35.37C201.72 33.64 205.89 16.7 205.75 0h100.63c0 54.12 43.59 97.99 97.36 97.99 17.83 0 34.54-4.83 48.92-13.25l50.31 87.14c-46.78 27.09-62.94 86.72-36.08 133.24l.01.01z"/>
</symbol>
<symbol id="space" viewBox="0 0 230 230">
<title>space</title>
<path d="M20 10h80c10 0 10 10 10 10v80c0 10-10 10-10 10H20c-10 0-10-10-10-10V20s0-10 10-10zm110 0h80c10 0 10 10 10 10v80c0 10-10 10-10 10h-80c-10 0-10-10-10-10V20s0-10 10-10zm-30 110c10 0 10 10 10 10v80c0 10-10 10-10 10H20c-10 0-10-10-10-10v-80c0-10 10-10 10-10h80zm79.97 13.19c.26-3.44 2.21-8.24 1.38-11.29-7.75 3.41-15.01 4.36-15.07 14.3-.03 4.33.81 15.53-1.31 18.79-1.84 2.83-6.28 5.11-9.02 7.79-5.4 5.26-10.27 13.83-13.02 20.85-1.56 3.98-2.89 8.54-1.67 12.8 2.42 8.45 13.46 17.09 21.26 20.57 2.81 1.26 6.68 2.79 9.79 2.61 9.62-.58 23.12-10.62 27.92-18.67 5.31-8.88 1.83-24.07-1.89-33.12-5.5-13.34-13.24-14.07-16.92-24.84-.82-2.42-1.63-7.25-1.45-9.79z"/>
</symbol>
<symbol id="renew" viewBox="0 0 32 32">
<title>renew</title>
<path d="M27.802 5.197c-2.925-3.194-7.13-5.197-11.803-5.197-8.837 0-16 7.163-16 16h3c0-7.18 5.82-13 13-13 3.844 0 7.298 1.669 9.678 4.322l-4.678 4.678h11v-11l-4.198 4.197z"></path>
<path d="M29 16c0 7.18-5.82 13-13 13-3.844 0-7.298-1.669-9.678-4.322l4.678-4.678h-11v11l4.197-4.197c2.925 3.194 7.13 5.197 11.803 5.197 8.837 0 16-7.163 16-16h-3z"></path>
</symbol>
<symbol id="delete" viewBox="0 0 32 32">
<title>delete</title>
<path d="M16 0c-8.837 0-16 7.163-16 16s7.163 16 16 16 16-7.163 16-16-7.163-16-16-16zM16 29c-7.18 0-13-5.82-13-13s5.82-13 13-13 13 5.82 13 13-5.82 13-13 13z"></path>
<path d="M21 8l-5 5-5-5-3 3 5 5-5 5 3 3 5-5 5 5 3-3-5-5 5-5z"></path>
</symbol>
<symbol id="team_add" viewBox="0 0 225 225">
<title>team_add</title>
<path d="M136.311 2.316c-9.571.162-19.341 2.078-26.711 4.323-21.75 6.6-9.59 1.98-27.02 6.13-3.92.93-26.06 18.03-30 17.37C35.55 26.35 33.25 51.31 28.34 52.15c24.55 2.3 11.35-1.8 26.94-.25 6.78.68 24.47 6.45 29.28 10.23 4.17 3.28 7.08 5.08 10.87 9.74 2.836 3.485 6.428 6.917 10.372 10.128V65.625h13.396v25.706a109.35 109.35 0 0 0 7.022 3.87c6.01 3 12.97 5.73 19.83 4.46 13.61-2.52 28.79-18.44 35.4-30.06 2.4-4.21 5.36-10.01 5.53-14.87.52-15.07-13.24-37.54-25.15-46.2-6.575-4.78-15.948-6.376-25.519-6.215zm-17.113 89.015c-4.543-2.715-9.17-5.893-13.396-9.333v23.804H85.838c1.4 2.908 2.41 6.033 3.232 9.047.377 1.396.735 2.85 1.071 4.349h15.661v40.177h13.396v-40.177h40.177v-13.396h-40.177v-14.47zm-29.057 27.867H65.625v-13.396h20.213c-1.596-3.314-3.703-6.344-6.649-8.591-7.555-5.762-20.343-7.847-31.87-7.654-5.24.087-10.22.647-14.329 1.543-4.75 1.04-11.08 2.72-14.84 5.83C6.5 106.6-1.2 131.77.25 146.35c1.61 16.1 20.23 31.97 33.44 39.88 19.46 11.66 7.88 5.75 22.63 15.88 3.31 2.27 30.91 7.22 33.05 10.58 8.52 15.13 28.78.16 32.7 3.23-14.66-19.67-8.93-7.18-18.17-19.74-4.02-5.47-11.48-22.4-11.85-28.48-.33-5.27-.92-8.61.04-14.53 1.675-10.214.456-23.238-1.949-33.972zM209.099 74.91c-11.88 21.46-2.839 11.06-10.459 24.64-3.32 5.91-15.69 19.73-21.09 22.61-4.69 2.5-7.51 4.43-13.32 6.04-11.46 3.15-24.66 11.22-33.8 18.77-5.17 4.29-10.46 9.54-12 16.29-3.06 13.41 5.62 33.56 13.75 44.19 2.93 3.85 7.13 8.85 11.55 10.94 13.73 6.46 39.97 2.84 52.72-4.57 14.06-8.18 20.77-31.61 22.48-46.82 2.53-22.43 1.97-9.53 5.06-27.05.7-3.94-6.33-30.88-4.16-34.23 10.27-14-11.9-26-10.73-30.81z"/>
</symbol>
<symbol id="team_remove" viewBox="0 0 225 225">
<title>team_remove</title>
<path d="M136.311 2.316c-9.571.162-19.341 2.078-26.711 4.323-21.75 6.6-9.59 1.98-27.02 6.13-3.92.93-26.06 18.03-30 17.37C35.55 26.35 33.25 51.31 28.34 52.15c24.55 2.3 11.35-1.8 26.94-.25 6.78.68 24.47 6.45 29.28 10.23 4.17 3.28 7.08 5.08 10.87 9.74 7.47 9.18 20.18 18.01 30.79 23.33 6.01 3 12.97 5.73 19.83 4.46 13.61-2.52 28.79-18.44 35.4-30.06 2.4-4.21 5.36-10.01 5.53-14.87.52-15.07-13.24-37.54-25.15-46.2-6.575-4.78-15.948-6.375-25.519-6.214zm72.788 72.594c-11.88 21.46-2.839 11.06-10.459 24.64-3.32 5.91-15.69 19.73-21.09 22.61-4.69 2.5-7.51 4.43-13.32 6.04-11.46 3.15-24.66 11.22-33.8 18.77-5.17 4.29-10.46 9.54-12 16.29-3.06 13.41 5.62 33.56 13.75 44.19 2.93 3.85 7.13 8.85 11.55 10.94 13.73 6.46 39.97 2.84 52.72-4.57 14.06-8.18 20.77-31.61 22.48-46.82 2.53-22.43 1.97-9.53 5.06-27.05.7-3.94-6.33-30.88-4.16-34.23 10.27-14-11.9-26-10.73-30.81zM49.493 89.548a86.796 86.796 0 0 0-2.175.009c-5.24.087-10.219.647-14.328 1.543-4.75 1.04-11.08 2.72-14.84 5.83C6.5 106.6-1.2 131.77.25 146.35c1.61 16.1 20.23 31.97 33.44 39.88 19.46 11.66 7.88 5.75 22.63 15.88 3.31 2.27 30.91 7.22 33.05 10.58 8.52 15.13 28.78.16 32.7 3.23-14.66-19.67-8.93-7.18-18.17-19.74-4.02-5.47-11.48-22.4-11.85-28.48-.33-5.27-.92-8.61.04-14.53 1.677-10.226.454-23.266-1.956-34.007H66.462v-13.158h19.475c-1.608-3.393-3.742-6.5-6.748-8.794-7.083-5.401-18.764-7.572-29.696-7.663zm36.444 16.457c1.35 2.85 2.33 5.9 3.133 8.844.374 1.385.73 2.828 1.064 4.314h68.404v-13.158H85.937z"/>
</symbol>
<symbol id="team_toggle" viewBox="0 0 225 225">
<title>team_toggle</title>
<path d="M136.311 2.316c-9.571.162-19.341 2.078-26.711 4.323-21.75 6.6-9.59 1.98-27.02 6.13-3.92.93-26.06 18.03-30 17.37C35.55 26.35 33.25 51.31 28.34 52.15c24.55 2.3 11.35-1.8 26.94-.25 2.645.265 6.957 1.316 11.511 2.711v-22.97h12.902v27.755c2.076.957 3.8 1.895 4.867 2.734 3.667 2.884 6.362 4.63 9.536 8.177h24.263v12.902h-11.037c6.071 4.75 12.826 8.947 18.898 11.991 6.01 3 12.97 5.73 19.83 4.46 13.61-2.52 28.79-18.44 35.4-30.06 2.4-4.21 5.36-10.01 5.53-14.87.52-15.07-13.24-37.54-25.15-46.2-6.575-4.78-15.948-6.375-25.519-6.214zm-28.99 80.893c-4.537-3.552-8.695-7.412-11.89-11.338-.457-.562-.9-1.078-1.335-1.564H79.693V59.396c-3.629-1.674-8.374-3.398-12.902-4.785v15.696H28.125v12.902h38.666v8.428c4.773 1.23 9.088 3.05 12.398 5.574.174.132.336.274.504.412V83.209h27.629zM79.694 97.623v24.252H66.791V91.637c-6.12-1.578-12.996-2.188-19.473-2.08-5.24.087-10.219.647-14.328 1.543-4.75 1.04-11.08 2.72-14.84 5.83C6.5 106.6-1.2 131.77.25 146.35c1.61 16.1 20.23 31.97 33.44 39.88 19.46 11.66 7.88 5.75 22.63 15.88 3.31 2.27 30.91 7.22 33.05 10.58 8.52 15.13 28.78.16 32.7 3.23-14.66-19.67-8.93-7.18-18.17-19.74-4.02-5.47-11.48-22.4-11.85-28.48-.33-5.27-.92-8.61.04-14.53 1.91-11.64.06-26.93-3.02-38.32-1.705-6.249-4.197-12.976-9.377-17.227zM209.099 74.91c-11.88 21.46-2.839 11.06-10.459 24.64-3.32 5.91-15.69 19.73-21.09 22.61-4.69 2.5-7.51 4.43-13.32 6.04-11.46 3.15-24.66 11.22-33.8 18.77-3.73 3.095-7.514 6.695-9.915 10.993h73.782v12.915h-76.45c.568 12.59 7.633 27.811 14.333 36.571 2.93 3.85 7.13 8.85 11.55 10.94 13.73 6.46 39.97 2.84 52.72-4.57 14.06-8.18 20.77-31.61 22.48-46.82 2.53-22.43 1.97-9.53 5.06-27.05.7-3.94-6.33-30.88-4.16-34.23 10.27-14-11.9-25.999-10.73-30.809zm-91.252 95.968c-.122-2.688.045-5.258.584-7.618.429-1.879 1.157-3.638 2.084-5.297h-16.546v12.915h13.878z"/>
</symbol>
<symbol id="user_add" viewBox="0 0 225 225">
<title>user_add</title>
<path d="M136.119.335c-17.735 7.806-34.368 9.985-34.506 32.754-.07 9.916 1.862 35.555-3.007 43.03C94.4 82.6 84.236 87.814 77.961 93.95c-3.51 3.421-6.916 7.463-10.146 11.847H105.8V65.625h13.4v40.173h40.175V119.2H119.2v40.175h-13.4V119.2H65.625v-10.338c-7.213 10.404-13.38 22.362-17.494 32.834-3.572 9.116-6.606 19.57-3.807 29.306 5.531 19.363 30.81 39.153 48.67 47.111 6.44 2.896 15.309 6.386 22.425 5.973 22.038-1.31 52.943-24.315 63.95-42.74 12.15-20.341 4.192-55.138-4.344-75.852-12.592-30.562-30.315-32.216-38.741-56.889-1.876-5.53-3.723-16.604-3.31-22.41.58-7.889 5.049-18.868 3.145-25.86zM65.625 108.862c.72-1.039 1.45-2.06 2.19-3.064h-2.19v3.064z"/>
</symbol>
<symbol id="user_remove" viewBox="0 0 225 225">
<title>user_remove</title>
<path d="M136.9 1.07c-17.73 7.8-34.36 9.98-34.5 32.75-.07 9.92 1.86 35.56-3.01 43.03-4.2 6.48-14.37 11.7-20.64 17.83-4.025 3.924-7.916 8.655-11.558 13.795h92.183v13.4h-93.75v-11.15C58.747 120.86 52.88 132.34 48.92 142.43c-3.58 9.11-6.61 19.57-3.81 29.3 5.53 19.37 30.81 39.16 48.67 47.11 6.44 2.9 15.31 6.39 22.42 5.98 22.04-1.31 52.95-24.32 63.95-42.74 12.15-20.34 4.2-55.14-4.34-75.85-12.59-30.57-30.31-32.22-38.74-56.89-1.88-5.53-3.72-16.61-3.31-22.41.58-7.89 5.05-18.87 3.14-25.86zM65.626 110.725c.516-.76 1.04-1.507 1.567-2.25h-1.567v2.25z"/>
</symbol>
<symbol id="user_toggle" viewBox="0 0 225 225">
<title>user_toggle</title>
<path d="M136.9 1.07c-17.73 7.8-34.36 9.98-34.5 32.75-.052 7.425 1.015 23.656-.487 34.484h19.962v13.392H95.061c-3.95 3.552-9.087 6.861-13.365 10.379v29.8H68.304v-14.94c-8.028 10.987-14.92 24.12-19.384 35.495-3.58 9.11-6.61 19.57-3.81 29.3 5.53 19.37 30.81 39.16 48.67 47.11 6.44 2.9 15.31 6.39 22.42 5.98 22.04-1.31 52.95-24.32 63.95-42.74 1.496-2.503 2.683-5.227 3.605-8.115h-80.63v-13.392h83.055c1.274-18.498-4.398-39.862-10.37-54.343-12.59-30.57-30.31-32.22-38.74-56.89-1.88-5.53-3.72-16.61-3.31-22.41.58-7.89 5.05-18.87 3.14-25.86zm49.28 159.503c-.324 4.701-1.092 9.221-2.425 13.392h13.12v-13.392H186.18zM68.304 106.935c3.319-4.542 6.827-8.727 10.446-12.255.906-.886 1.907-1.75 2.946-2.605V81.696h13.365c1.73-1.556 3.234-3.158 4.329-4.847 1.224-1.878 2.018-4.908 2.523-8.545H81.696V28.125H68.304v40.179H28.125v13.392h40.179v25.24z"/>
</symbol>
<symbol id="admin" viewBox="0 0 225 225">
<title>admin</title>
<path d="M136.904 1.068c-17.735 7.805-34.368 9.984-34.506 32.753-.069 9.916 1.862 35.554-3.007 43.028-4.206 6.482-14.37 11.696-20.645 17.833-12.37 12.054-23.513 31.664-29.83 47.745-3.571 9.116-6.606 19.571-3.806 29.308 5.53 19.363 30.81 39.151 48.67 47.109 6.44 2.896 15.308 6.387 22.424 5.973 22.039-1.31 52.944-24.314 63.95-42.739 12.15-20.342 4.191-55.139-4.345-75.853-12.592-30.561-30.313-32.217-38.74-56.89-1.876-5.53-3.722-16.603-3.309-22.41.58-7.888 5.047-18.865 3.144-25.857zM106.3 107.55h18.426c0 9.91 7.98 17.944 17.825 17.944 3.266 0 6.326-.885 8.958-2.428l9.214 15.958c-8.567 4.96-11.526 15.877-6.607 24.397a17.657 17.657 0 0 0 6.54 6.52l-9.213 15.958c-8.573-4.906-19.48-2.004-24.39 6.502a17.657 17.657 0 0 0-2.378 8.899H106.25c-.051-9.867-8.012-17.848-17.826-17.848-3.248 0-6.294.874-8.917 2.403L70.294 169.9c8.535-4.972 11.477-15.87 6.566-24.375a17.656 17.656 0 0 0-6.582-6.542l9.214-15.958c8.579 4.939 19.513 2.041 24.431-6.478a17.654 17.654 0 0 0 2.377-8.996zm9.2 27.894c-10.484 0-18.981 8.497-18.981 18.98 0 10.484 8.497 18.983 18.98 18.983 10.484 0 18.983-8.499 18.983-18.982 0-10.484-8.499-18.981-18.983-18.981z"/>
</symbol>
<symbol id="logout" viewBox="0 0 400 400">
<title>logout</title>
<path id="path100" d="M 0.60923594,200.48078 V 11.790026 H 90.284044 179.95886 v 8.407013 8.407015 H 99.625174 19.29149 V 200.48078 372.35751 h 80.333684 80.333686 v 8.40701 8.40702 H 90.284044 0.60923594 Z m 190.55897406,0 V 11.790026 H 295.78883 400.40945 V 200.48078 389.17154 H 295.78883 191.16821 Z m 190.55898,157.86504 v -12.14347 h -85.93836 -85.93836 v 12.14347 12.14346 h 85.93836 85.93836 z m 0,-82.20192 v -4.67055 h -85.93836 -85.93836 v 4.67055 4.67057 h 85.93836 85.93836 z m 0,-132.64399 V 30.47228 h -85.93836 -85.93836 v 113.02763 113.02763 h 85.93836 85.93836 z m -153.75702,64.86435 c -7.48307,-8.2687 -1.19596,-19.84964 10.18299,-18.75716 13.82337,1.32712 13.47992,20.53851 -0.38808,21.7066 -4.62266,0.38937 -7.57894,-0.50082 -9.79491,-2.94944 z M 79.074688,237.7071 C 54.927883,218.25362 34.946882,201.66624 34.672466,200.84626 c -0.439732,-1.31395 85.535384,-71.32783 89.537494,-72.91488 0.86369,-0.34253 1.57038,7.43395 1.57038,17.28107 v 17.90382 h 28.02338 28.02337 v 37.36451 37.36451 h -28.02337 -28.02338 v 17.74813 c 0,9.76148 -0.63053,17.68862 -1.40117,17.61589 -0.77064,-0.0727 -21.15765,-16.04872 -45.304482,-35.50221 z"></path>
</symbol>
</defs>
</svg>
