<?xml version="1.0" encoding="UTF-8" standalone="no"?>
<svg
   xmlns:dc="http://purl.org/dc/elements/1.1/"
   xmlns:cc="http://creativecommons.org/ns#"
   xmlns:rdf="http://www.w3.org/1999/02/22-rdf-syntax-ns#"
   xmlns:svg="http://www.w3.org/2000/svg"
   xmlns="http://www.w3.org/2000/svg"
   xmlns:sodipodi="http://sodipodi.sourceforge.net/DTD/sodipodi-0.dtd"
   xmlns:inkscape="http://www.inkscape.org/namespaces/inkscape"
   width="2.5in"
   height="2.5in"
   viewBox="0 0 225 225"
   version="1.1"
   id="svg3"
   sodipodi:docname="team_io.svg"
   inkscape:version="0.92.3 (2405546, 2018-03-11)">
  <metadata
     id="metadata9">
    <rdf:RDF>
      <cc:Work
         rdf:about="">
        <dc:format>image/svg+xml</dc:format>
        <dc:type
           rdf:resource="http://purl.org/dc/dcmitype/StillImage" />
        <dc:title></dc:title>
      </cc:Work>
    </rdf:RDF>
  </metadata>
  <defs
     id="defs7" />
  <sodipodi:namedview
     pagecolor="#ffffff"
     bordercolor="#666666"
     borderopacity="1"
     objecttolerance="10"
     gridtolerance="10"
     guidetolerance="10"
     inkscape:pageopacity="0"
     inkscape:pageshadow="2"
     inkscape:window-width="1853"
     inkscape:window-height="1025"
     id="namedview5"
     showgrid="false"
     inkscape:zoom="2"
     inkscape:cx="57.206368"
     inkscape:cy="129.38297"
     inkscape:window-x="67"
     inkscape:window-y="27"
     inkscape:window-maximized="1"
     inkscape:current-layer="svg3" />
  <path
     style="fill:#000000;fill-opacity:1;stroke:none;stroke-width:1.06666672"
     d="M 145.39844 2.4707031 C 135.1891 2.6427031 124.76758 4.6873646 116.90625 7.0820312 C 93.70625 14.122031 106.67794 9.1944268 88.085938 13.621094 C 83.904604 14.613094 60.288604 32.852436 56.085938 32.148438 C 37.920603 28.105771 35.465849 54.730953 30.228516 55.626953 C 56.415182 58.080286 42.33551 53.706042 58.964844 55.359375 C 61.786972 55.64242 66.385638 56.764116 71.244141 58.251953 L 71.244141 33.75 L 85.005859 33.75 L 85.005859 63.355469 C 87.220015 64.376673 89.058801 65.376807 90.197266 66.271484 C 94.109252 69.348539 96.983263 71.209754 100.36914 74.994141 L 126.25 74.994141 L 126.25 88.755859 L 114.47656 88.755859 C 120.95259 93.823522 128.15837 98.299522 134.63477 101.54688 C 141.04543 104.74688 148.46978 107.65935 155.78711 106.30469 C 170.30444 103.61669 186.49621 86.634901 193.54688 74.240234 C 196.10688 69.749568 199.26398 63.562906 199.44531 58.378906 C 199.99998 42.30424 185.32314 18.336943 172.61914 9.0996094 C 165.60581 4.0009427 155.60777 2.2987031 145.39844 2.4707031 z M 114.47656 88.755859 C 109.63589 84.967902 105.20125 80.850599 101.79297 76.662109 C 101.3058 76.063112 100.83307 75.51267 100.36914 74.994141 L 85.005859 74.994141 L 85.005859 63.355469 C 81.135445 61.570371 76.073386 59.73083 71.244141 58.251953 L 71.244141 74.994141 L 30 74.994141 L 30 88.755859 L 71.244141 88.755859 L 71.244141 97.746094 C 76.335203 99.058613 80.937849 100.99905 84.46875 103.69141 C 84.653651 103.83251 84.827051 103.98411 85.005859 104.13086 L 85.005859 88.755859 L 114.47656 88.755859 z M 85.005859 104.13086 L 85.005859 130 L 71.244141 130 L 71.244141 97.746094 C 64.714777 96.062768 57.381741 95.411825 50.472656 95.527344 C 44.883464 95.620794 39.572786 96.217161 35.189453 97.173828 C 30.122786 98.283161 23.370042 100.07524 19.359375 103.39258 C 6.9327083 113.70724 -1.2790885 140.55542 0.26757812 156.10742 C 1.9849115 173.28076 21.84488 190.2072 35.935547 198.64453 C 56.69288 211.08186 44.340885 204.77865 60.074219 215.58398 C 63.604885 218.00532 93.045458 223.28514 95.328125 226.86914 C 104.41612 243.00781 126.0257 227.03979 130.20703 230.31445 C 114.5697 209.33312 120.68217 222.65515 110.82617 209.25781 C 106.53817 203.42315 98.582167 185.36619 98.1875 178.88086 C 97.8355 173.25953 97.204516 169.69553 98.228516 163.38086 C 100.26585 150.96486 98.293146 134.65519 95.007812 122.50586 C 93.189327 115.84152 90.53135 108.66581 85.005859 104.13086 z M 223.03906 79.904297 C 210.36706 102.79496 220.01081 91.702167 211.88281 106.1875 C 208.34148 112.4915 195.14672 127.23269 189.38672 130.30469 C 184.38405 132.97135 181.37507 135.02876 175.17773 136.74609 C 162.95373 140.10609 148.87433 148.71424 139.125 156.76758 C 135.14587 160.0694 131.11014 163.90939 128.54883 168.49414 L 207.25 168.49414 L 207.25 182.26953 L 125.70312 182.26953 C 126.30975 195.69903 133.84579 211.93535 140.99219 221.2793 C 144.11752 225.38596 148.59783 230.71989 153.3125 232.94922 C 167.95783 239.83989 195.94687 235.97822 209.54688 228.07422 C 224.54421 219.34889 231.70139 194.35681 233.52539 178.13281 C 236.22406 154.20748 235.62587 167.9673 238.92188 149.2793 C 239.66854 145.07663 232.16971 116.34091 234.48438 112.76758 C 245.43904 97.834243 221.79106 85.034964 223.03906 79.904297 z M 125.70312 182.26953 C 125.57362 179.40263 125.75196 176.66092 126.32617 174.14453 C 126.78357 172.13971 127.56042 170.2634 128.54883 168.49414 L 110.90039 168.49414 L 110.90039 182.26953 L 125.70312 182.26953 z "
     transform="scale(0.9375)"
     id="path1525" />
</svg>
