<svg xmlns="http://www.w3.org/2000/svg" viewBox="0 0 280 280" height="298.667" width="298.667">
  <path d="M111.712 266.36c-2.68-4.209-37.18-10.41-41.306-13.253-18.442-12.687-3.973-5.282-28.297-19.891C25.601 223.31 2.321 203.443.317 183.28c-1.815-18.265 7.803-49.782 22.367-61.892 4.708-3.891 12.618-6.002 18.56-7.299 16.425-3.596 44.01-2.841 57.743 7.653 6.914 5.282 10.152 14.008 12.346 22.085 3.854 14.267 6.167 33.416 3.783 47.99-1.198 7.416-.463 11.602-.06 18.194.463 7.617 9.796 28.817 14.825 35.668 11.539 15.73 4.376.083 22.71 24.726-4.897-3.844-30.23 14.892-40.879-4.044zM65.722 37.742c4.933.826 32.6-20.587 37.499-21.755 21.797-5.188 6.594.59 33.775-7.676 18.43-5.612 48.85-9.598 65.287 2.37 14.895 10.848 32.091 38.982 31.439 57.86-.214 6.084-3.914 13.347-6.914 18.618-8.254 14.55-27.23 34.49-44.248 37.65-8.574 1.591-17.267-1.828-24.786-5.59-13.259-6.662-29.15-17.722-38.484-29.218-4.743-5.837-8.372-8.089-13.59-12.192C99.686 73.068 77.58 65.85 69.1 64.99c-19.485-1.934-2.988 3.195-33.68.318 6.143-1.05 9.013-32.308 30.3-27.568zM274.791 132.401c-2.717 4.186 6.071 37.932 5.194 42.861-3.867 21.943-3.167 5.79-6.322 33.876-2.134 19.043-10.53 48.391-28.106 58.638-15.928 9.28-48.73 13.807-65.891 5.718-5.527-2.617-10.78-8.878-14.445-13.7-10.164-13.313-21.015-38.546-17.184-55.337 1.92-8.454 8.538-15.034 15.002-20.399 11.42-9.456 27.929-19.561 42.243-23.511 7.27-2.017 10.792-4.434 16.65-7.559 6.76-3.608 22.213-20.917 26.364-28.322 9.523-17.003-1.767-3.985 13.081-30.858-1.47 6.026 26.245 21.06 13.413 38.593zM127.034-201.432" fill="#89c3eb"/>
</svg>
