<?xml version="1.0" encoding="UTF-8" standalone="no"?>
<svg
   xmlns:dc="http://purl.org/dc/elements/1.1/"
   xmlns:cc="http://creativecommons.org/ns#"
   xmlns:rdf="http://www.w3.org/1999/02/22-rdf-syntax-ns#"
   xmlns:svg="http://www.w3.org/2000/svg"
   xmlns="http://www.w3.org/2000/svg"
   xmlns:sodipodi="http://sodipodi.sourceforge.net/DTD/sodipodi-0.dtd"
   xmlns:inkscape="http://www.inkscape.org/namespaces/inkscape"
   width="2.5in"
   height="2.5in"
   viewBox="0 0 225 225"
   version="1.1"
   id="svg3"
   sodipodi:docname="team_i.svg"
   inkscape:version="0.92.3 (2405546, 2018-03-11)">
  <metadata
     id="metadata9">
    <rdf:RDF>
      <cc:Work
         rdf:about="">
        <dc:format>image/svg+xml</dc:format>
        <dc:type
           rdf:resource="http://purl.org/dc/dcmitype/StillImage" />
      </cc:Work>
    </rdf:RDF>
  </metadata>
  <defs
     id="defs7" />
  <sodipodi:namedview
     pagecolor="#ffffff"
     bordercolor="#666666"
     borderopacity="1"
     objecttolerance="10"
     gridtolerance="10"
     guidetolerance="10"
     inkscape:pageopacity="0"
     inkscape:pageshadow="2"
     inkscape:window-width="1853"
     inkscape:window-height="1025"
     id="namedview5"
     showgrid="false"
     inkscape:zoom="2.7812867"
     inkscape:cx="98.384779"
     inkscape:cy="136.72046"
     inkscape:window-x="67"
     inkscape:window-y="27"
     inkscape:window-maximized="1"
     inkscape:current-layer="svg3" />
  <path
     style="stroke-width:1.06666672"
     d="M 145.39844 2.4707031 C 135.1891 2.6427031 124.76758 4.6873646 116.90625 7.0820312 C 93.70625 14.122031 106.67794 9.1944268 88.085938 13.621094 C 83.904604 14.613094 60.288604 32.852436 56.085938 32.148438 C 37.920603 28.105771 35.465849 54.730953 30.228516 55.626953 C 56.415182 58.080286 42.33551 53.706042 58.964844 55.359375 C 66.196844 56.084708 85.066599 62.239484 90.197266 66.271484 C 94.645266 69.770151 97.750301 71.691443 101.79297 76.662109 C 104.81751 80.379018 108.6486 84.039972 112.85547 87.464844 L 112.85547 70 L 127.14453 70 L 127.14453 97.419922 C 129.69199 98.942195 132.21548 100.33381 134.63477 101.54688 C 141.04543 104.74688 148.46978 107.65935 155.78711 106.30469 C 170.30444 103.61669 186.49621 86.634901 193.54688 74.240234 C 196.10688 69.749568 199.26398 63.562906 199.44531 58.378906 C 199.99998 42.30424 185.32314 18.336943 172.61914 9.0996094 C 165.60581 4.0009427 155.60777 2.2987031 145.39844 2.4707031 z M 127.14453 97.419922 C 122.29856 94.524139 117.36223 91.133863 112.85547 87.464844 L 112.85547 112.85547 L 91.560547 112.85547 C 93.054572 115.95682 94.130411 119.29038 95.007812 122.50586 C 95.410308 123.99431 95.792259 125.54601 96.150391 127.14453 L 112.85547 127.14453 L 112.85547 170 L 127.14453 170 L 127.14453 127.14453 L 170 127.14453 L 170 112.85547 L 127.14453 112.85547 L 127.14453 97.419922 z M 96.150391 127.14453 L 70 127.14453 L 70 112.85547 L 91.560547 112.85547 C 89.857878 109.32101 87.610582 106.08897 84.46875 103.69141 C 76.409417 97.546069 62.76888 95.321753 50.472656 95.527344 C 44.883464 95.620794 39.572786 96.217161 35.189453 97.173828 C 30.122786 98.283161 23.370042 100.07524 19.359375 103.39258 C 6.9327083 113.70724 -1.2790885 140.55542 0.26757812 156.10742 C 1.9849115 173.28076 21.84488 190.2072 35.935547 198.64453 C 56.69288 211.08186 44.340885 204.77865 60.074219 215.58398 C 63.604885 218.00532 93.045458 223.28514 95.328125 226.86914 C 104.41612 243.00781 126.0257 227.03979 130.20703 230.31445 C 114.5697 209.33312 120.68217 222.65515 110.82617 209.25781 C 106.53817 203.42315 98.582167 185.36619 98.1875 178.88086 C 97.8355 173.25953 97.204516 169.69553 98.228516 163.38086 C 100.01625 152.48598 98.715479 138.59384 96.150391 127.14453 z M 223.03906 79.904297 C 210.36706 102.79496 220.01081 91.702167 211.88281 106.1875 C 208.34148 112.4915 195.14672 127.23269 189.38672 130.30469 C 184.38405 132.97135 181.37507 135.02876 175.17773 136.74609 C 162.95373 140.10609 148.87433 148.71424 139.125 156.76758 C 133.61033 161.34358 127.96884 166.94453 126.32617 174.14453 C 123.06217 188.44853 132.32019 209.94063 140.99219 221.2793 C 144.11752 225.38596 148.59783 230.71989 153.3125 232.94922 C 167.95783 239.83989 195.94687 235.97822 209.54688 228.07422 C 224.54421 219.34889 231.70139 194.35681 233.52539 178.13281 C 236.22406 154.20748 235.62587 167.9673 238.92188 149.2793 C 239.66854 145.07663 232.16971 116.34091 234.48438 112.76758 C 245.43904 97.834243 221.79106 85.034964 223.03906 79.904297 z "
     transform="scale(0.9375)"
     id="path829" />
</svg>
