<svg xmlns="http://www.w3.org/2000/svg" viewBox="0 0 225 225" height="240" width="240">
  <path d="M133.76 26.926c-.414 5.806 1.434 16.88 3.31 22.41 8.426 24.673 26.148 26.328 38.74 56.89 8.536 20.714 16.494 55.51 4.344 75.851-11.006 18.425-41.912 41.43-63.95 42.74-7.116.413-15.984-3.076-22.425-5.972-17.86-7.958-43.139-27.748-48.67-47.111-2.799-9.737.235-20.19 3.807-29.306 6.317-16.081 17.46-35.692 29.83-47.746 6.276-6.137 16.44-11.35 20.646-17.832 4.869-7.475 2.938-33.113 3.007-43.029.138-22.769 16.77-24.948 34.505-32.754 1.904 6.992-2.565 17.97-3.144 25.859z" fill="#89c3eb"/>
</svg>
