<?xml version="1.0" encoding="UTF-8" standalone="no"?>
<svg
   xmlns:dc="http://purl.org/dc/elements/1.1/"
   xmlns:cc="http://creativecommons.org/ns#"
   xmlns:rdf="http://www.w3.org/1999/02/22-rdf-syntax-ns#"
   xmlns:svg="http://www.w3.org/2000/svg"
   xmlns="http://www.w3.org/2000/svg"
   xmlns:sodipodi="http://sodipodi.sourceforge.net/DTD/sodipodi-0.dtd"
   xmlns:inkscape="http://www.inkscape.org/namespaces/inkscape"
   width="240"
   height="240"
   viewBox="0 0 225 225"
   version="1.1"
   id="svg2836"
   sodipodi:docname="user_o.svg"
   inkscape:version="0.92.3 (2405546, 2018-03-11)">
  <metadata
     id="metadata2842">
    <rdf:RDF>
      <cc:Work
         rdf:about="">
        <dc:format>image/svg+xml</dc:format>
        <dc:type
           rdf:resource="http://purl.org/dc/dcmitype/StillImage" />
      </cc:Work>
    </rdf:RDF>
  </metadata>
  <defs
     id="defs2840" />
  <sodipodi:namedview
     pagecolor="#ffffff"
     bordercolor="#666666"
     borderopacity="1"
     objecttolerance="10"
     gridtolerance="10"
     guidetolerance="10"
     inkscape:pageopacity="0"
     inkscape:pageshadow="2"
     inkscape:window-width="1853"
     inkscape:window-height="1025"
     id="namedview2838"
     showgrid="false"
     inkscape:zoom="1.9666667"
     inkscape:cx="20.358647"
     inkscape:cy="96.647369"
     inkscape:window-x="67"
     inkscape:window-y="27"
     inkscape:window-maximized="1"
     inkscape:current-layer="svg2836" />
  <path
     style="stroke-width:1.33333337"
     d="M 146.02734 1.140625 C 127.11534 9.460625 109.3759 11.786219 109.22656 36.074219 C 109.15186 46.655552 111.21029 74.004656 106.01562 81.972656 C 101.53563 88.884656 90.688 94.453519 84 100.99219 C 79.706903 105.1777 75.556401 110.22347 71.671875 115.70703 L 170 115.70703 L 170 130 L 70 130 L 70 118.10742 C 62.663915 128.91635 56.405616 141.16167 52.181641 151.92578 C 48.362974 161.64311 45.13052 172.79907 48.117188 183.17773 C 54.015853 203.83907 80.980583 224.94969 100.03125 233.42969 C 106.90058 236.52302 116.36327 240.24593 123.94727 239.80859 C 147.4566 238.41126 180.42682 213.86675 192.16016 194.21875 C 205.12016 172.52275 196.64058 135.40317 187.53125 113.3125 C 174.10192 80.7045 155.19903 78.943573 146.20703 52.628906 C 144.2017 46.73024 142.2404 34.911276 142.67773 28.724609 C 143.2964 20.308609 148.06468 8.596625 146.02734 1.140625 z M 70 118.10742 C 70.550141 117.29685 71.110001 116.5002 71.671875 115.70703 L 70 115.70703 L 70 118.10742 z "
     transform="scale(0.9375)"
     id="path1420" />
</svg>
