<?xml version="1.0" encoding="UTF-8" standalone="no"?>
<!DOCTYPE svg PUBLIC "-//W3C//DTD SVG 20010904//EN"
              "http://www.w3.org/TR/2001/REC-SVG-20010904/DTD/svg10.dtd">

<svg xmlns="http://www.w3.org/2000/svg"
     width="2.5in" height="2.5in"
     viewBox="0 0 225 225">
  <path id="選択範囲"
        fill="none" stroke="black" stroke-width="1"
        d="M 129.67,46.25
           C 129.37,50.46 130.71,58.49 132.07,62.50
             138.18,80.39 151.03,81.59 160.16,103.75
             166.35,118.77 172.12,144.00 163.31,158.75
             155.33,172.11 132.92,188.79 116.94,189.74
             111.78,190.04 105.35,187.51 100.68,185.41
             87.73,179.64 69.40,165.29 65.39,151.25
             63.36,144.19 65.56,136.61 68.15,130.00
             72.73,118.34 80.81,104.12 89.78,95.38
             94.33,90.93 101.70,87.15 104.75,82.45
             108.28,77.03 106.88,58.44 106.93,51.25
             107.03,34.74 119.09,33.16 131.95,27.50
             133.33,32.57 130.09,40.53 129.67,46.25 Z" />
</svg>
